# xmcd CD database file
#
# Track frame offsets:
#	150
#	24579
#	28106
#	31754
#	34418
#	37306
#	40419
#	43329
#	46925
#	50473
#	54262
#	59902
#	84475
#	109305
#	110607
#
# Disc length: 1490 seconds
#
# Revision: 0
# Processed by: cddbd v1.5.2PL0 Copyright (c) Steve Scherf et al.
# Submitted via: CDex 1.70beta2
#
DISCID=d805d00f
DTITLE=Jerry Coker - The Jazz Ballad: Experience Ultimate Expression
DYEAR=2001
DGENRE=Jazz
TTITLE0=We'll Be Together Again
TTITLE1=Unaccompanied Soloist Without Temp
TTITLE2=Pianist Alone
TTITLE3=Soloist and Rhythm Section  On Chord Formulas
TTITLE4=Flat Playing Of Melody
TTITLE5=Written Version Of Melody With Phrasing Nuances
TTITLE6=Original Melody But With Rhymic Rephrasing
TTITLE7=Second Eight Bars Of Melody Chorus
TTITLE8=Inappropriate Rendition No. 1
TTITLE9=Inappropriate Rendition No. 2
TTITLE10=In True Ballad Style
TTITLE11=Complete Version
TTITLE12=Playalong Version
TTITLE13=Tuning Notes A Concert
TTITLE14=Tuning Notes Bb Concert
EXTD=YEAR: 2001
EXTT0=
EXTT1=
EXTT2=
EXTT3=
EXTT4=
EXTT5=
EXTT6=
EXTT7=
EXTT8=
EXTT9=
EXTT10=
EXTT11=
EXTT12=
EXTT13=
EXTT14=
PLAYORDER=
